<?xml version="1.0" standalone="no"?>
<!DOCTYPE svg PUBLIC "-//W3C//DTD SVG 20010904//EN"
 "http://www.w3.org/TR/2001/REC-SVG-20010904/DTD/svg10.dtd">
<svg version="1.0" xmlns="http://www.w3.org/2000/svg"
 width="260.000000pt" height="260.000000pt" viewBox="0 0 260.000000 260.000000"
 preserveAspectRatio="xMidYMid meet">
<metadata>
Created by potrace 1.11, written by Peter Selinger 2001-2013
</metadata>
<g transform="translate(0.000000,260.000000) scale(0.100000,-0.100000)"
fill="#000000" stroke="none">
<path d="M1170 2593 c-19 -2 -80 -13 -134 -24 -454 -94 -833 -433 -969 -865
-49 -155 -61 -238 -61 -404 1 -180 26 -313 90 -472 153 -386 484 -674 890
-777 116 -29 136 -31 279 -36 508 -16 973 265 1201 725 173 349 173 784 -1
1131 -183 367 -508 617 -908 700 -96 20 -297 31 -387 22z"/>
</g>
</svg>
